PathFileType	4	(X/Y/Z)	C:/Users/opensim2020/Desktop/walking_exp_matlab/subject02_walking05_straight_01.trc																																																																																																																												
DataRate	CameraRate	NumFrames	NumMarkers	Units	OrigDataRate	OrigDataStartFrame	OrigNumFrames																																																																																																																								
100	100	7	42	mm	100	721	190																																																																																																																								
Frame#	Time	LFHD			RFHD			LBHD			RBHD			C7			T10			CLAV			STRN			RBAK			LSHO			LUPA			LELB			LFRM			LWRA			LWRB			LFIN			RSHO			RUPA			RELB			RFRM			RWRA			RWRB			RFIN			LASI			RASI			LPSI			RPSI			LTHI			LKNE			LTIB			LANK			LHEE			LTOE			RTHI			RKNE			RTIB			RANK			RHEE			RTOE			*39			*40			*41		
		X1	Y1	Z1	X2	Y2	Z2	X3	Y3	Z3	X4	Y4	Z4	X5	Y5	Z5	X6	Y6	Z6	X7	Y7	Z7	X8	Y8	Z8	X9	Y9	Z9	X10	Y10	Z10	X11	Y11	Z11	X12	Y12	Z12	X13	Y13	Z13	X14	Y14	Z14	X15	Y15	Z15	X16	Y16	Z16	X17	Y17	Z17	X18	Y18	Z18	X19	Y19	Z19	X20	Y20	Z20	X21	Y21	Z21	X22	Y22	Z22	X23	Y23	Z23	X24	Y24	Z24	X25	Y25	Z25	X26	Y26	Z26	X27	Y27	Z27	X28	Y28	Z28	X29	Y29	Z29	X30	Y30	Z30	X31	Y31	Z31	X32	Y32	Z32	X33	Y33	Z33	X34	Y34	Z34	X35	Y35	Z35	X36	Y36	Z36	X37	Y37	Z37	X38	Y38	Z38	X39	Y39	Z39	X40	Y40	Z40	X41	Y41	Z41	X42	Y42	Z42
																																																																																																																															
72	0.71	-498.07312	1738.68896	-1151.40735	-515.17755	1714.40063	-1010.95856	-627.06354	1664.44299	-1179.19507	-655.9223	1638.68359	-1041.08813	-689.83246	1523.8136	-1112.72192	-749.79065	1248.68958	-1107.49573	-552.68494	1450.45081	-1120.43188	-505.43231	1278.00781	-1111.63635	-754.90955	1351.16626	-1050.62378	-612.5943	1495.73694	-1291.89575	-614.30237	1297.61035	-1387.44824	-607.39868	1158.15613	-1408.39502	-584.43988	1029.22778	-1427.13184	-523.06946	907.74738	-1393.89929	-562.93616	908.43073	-1434.29309	-536.89856	847.56219	-1439.42871	-616.27649	1486.48376	-924.68353	-650.79639	1297.17114	-841.34448	-632.8125	1151.0199	-819.20135	-586.39148	1038.62378	-801.7597	-513.42206	924.7373	-820.83832	-561.91534	910.08331	-794.36578	-513.02649	856.08636	-789.69037	-515.2702	985.62408	-1239.67395	-517.95142	978.12225	-981.68335	-726.84393	1028.29504	-1158.81042	-733.66687	1026.85376	-1044.0719	-590.51508	672.81897	-1279.42651	-636.11224	472.87469	-1246.84692	-706.12854	289.84924	-1247.13037	-720.64893	67.89373	-1204.85388	-761.17993	41.19471	-1155.39844	-564.17798	30.90751	-1210.1217	-526.2558	682.47144	-893.38019	-462.65567	488.32901	-911.18073	-537.00409	317.14682	-914.66779	-582.58618	130.13341	-950.63953	-609.03271	76.38018	-1014.36084	-453.25684	51.02488	-903.01563	-610.11139	1800.57031	-1071.65369	2845.9314	1034.07275	-3357.26147	NaN	NaN	NaN
73	0.72	-489.26886	1737.98853	-1151.50085	-506.52985	1713.48987	-1010.72943	-617.85852	1663.82593	-1178.70483	-646.60956	1637.47571	-1040.82153	-681.04364	1523.2356	-1113.05615	-741.45502	1248.24768	-1107.81921	-543.97491	1449.65344	-1120.59753	-497.17453	1277.06616	-1111.91125	-746.59222	1350.73779	-1051.14404	-603.28882	1495.36023	-1292.02405	-602.76367	1297.64111	-1388.15845	-593.22198	1158.43762	-1410.21094	-567.50006	1029.90894	-1428.4812	-503.52539	909.81781	-1394.84473	-542.86359	909.59796	-1435.87122	-515.54462	849.36267	-1440.43054	-607.84003	1485.51672	-925.04736	-643.33972	1296.17188	-841.93958	-627.14203	1150.44727	-819.58905	-581.37592	1037.47729	-801.63324	-509.50467	923.15771	-819.91968	-558.10547	908.85779	-793.6748	-509.92883	854.50116	-788.54443	-507.883	984.60205	-1240.22693	-510.21887	977.45941	-982.21313	-719.22766	1027.58716	-1158.88623	-725.46075	1025.87158	-1044.46924	-585.29089	671.97998	-1279.44275	-632.17145	472.31818	-1246.69824	-703.73572	289.77344	-1246.87952	-720.32635	68.10292	-1204.66809	-760.63837	41.29309	-1155.50232	-563.97577	30.79961	-1210.16101	-516.42145	682.4574	-894.27045	-449.82965	488.44858	-912.83472	-517.35583	314.24338	-914.45618	-555.24988	125.2012	-948.85437	-580.83423	70.76747	-1011.68555	-422.0665	51.80585	-902.28912	-601.31335	1799.60059	-1071.40295	2845.302	1033.64087	-3360.25391	NaN	NaN	NaN
74	0.73	-480.155	1737.2019	-1151.10535	-497.65671	1712.54333	-1010.3175	-608.9353	1663.26807	-1179.01123	-638.30634	1636.55603	-1040.56934	-672.19476	1522.51306	-1113.30188	-733.14545	1247.75122	-1108.09094	-535.22021	1448.81213	-1120.6698	-488.83975	1276.03967	-1112.12207	-737.5708	1349.80457	-1051.64478	-594.01965	1494.88086	-1292.05383	-591.23993	1297.45715	-1388.59375	-579.31012	1158.54504	-1411.23303	-550.42615	1030.63892	-1429.94592	-483.82144	912.32983	-1395.81946	-523.24518	910.98132	-1436.64514	-494.22491	851.42328	-1441.31567	-599.72284	1484.58643	-925.15747	-636.57117	1295.63708	-842.37512	-620.91309	1149.56396	-819.95654	-576.41925	1036.37634	-801.4137	-505.28748	921.25006	-818.91846	-554.47101	907.50092	-792.93073	-506.82529	852.79547	-787.48956	-500.54156	983.65271	-1240.64709	-501.55981	977.28162	-982.27179	-711.64001	1026.82043	-1158.75024	-717.48132	1025.04382	-1044.56494	-579.95081	671.14203	-1279.50488	-628.17273	471.73309	-1246.51794	-701.47931	290.07016	-1246.80176	-720.00757	68.22649	-1204.35205	-760.49066	41.75004	-1155.23596	-563.81372	30.7574	-1210.21753	-506.40912	682.20648	-894.98834	-438.13815	488.56866	-914.30841	-497.89008	311.43674	-914.18195	-528.06543	120.71713	-946.72137	-551.37726	64.79275	-1009.24219	-391.04749	52.97614	-901.61945	-592.32758	1798.82092	-1070.95276	2845.25024	1033.78687	-3360.31836	NaN	NaN	NaN
75	0.74	-470.94479	1736.32593	-1150.21924	-488.92609	1711.5293	-1009.93829	-599.69635	1662.27698	-1178.33862	-628.93872	1635.74023	-1040.68311	-663.3266	1521.80847	-1113.36609	-724.70337	1247.19189	-1108.17773	-526.49463	1447.83008	-1120.52527	-480.50684	1274.84424	-1112.15967	-728.95404	1349.29248	-1051.94617	-584.66125	1494.34583	-1291.96509	-579.78516	1297.49329	-1389.0343	-565.45099	1158.68262	-1412.45215	-533.59888	1031.39929	-1430.90991	-464.54608	914.51764	-1396.29797	-503.65244	912.34229	-1437.44482	-473.11237	853.57056	-1442.05359	-591.29034	1483.39099	-925.25702	-628.65332	1294.68445	-842.57898	-615.6579	1148.87756	-820.09277	-571.99359	1035.40637	-801.08075	-501.17703	919.37897	-817.94562	-550.39203	906.24915	-792.18481	-503.86725	851.12299	-786.37506	-493.17297	982.6264	-1241.02539	-493.2222	976.74963	-982.586	-703.89032	1025.95813	-1158.52271	-709.60596	1024.31775	-1044.47058	-574.51343	670.1853	-1279.51355	-624.20984	471.15414	-1246.2854	-699.17841	290.26035	-1246.48059	-719.70209	68.67837	-1204.16907	-760.815	42.57022	-1154.5498	-563.7113	30.70427	-1210.28003	-496.67444	681.67334	-895.73376	-426.16125	488.25925	-916.07507	-478.24591	308.86462	-913.86859	-500.68457	116.82652	-944.40289	-522.48932	59.5512	-1006.59753	-360.34476	54.45343	-901.04041	-583.40784	1797.8623	-1070.59839	2845.10815	1033.72449	-3360.21777	NaN	NaN	NaN
76	0.75	-462.08014	1735.55603	-1150.02197	-479.98441	1710.40271	-1009.38763	-590.70496	1661.52014	-1178.59033	-620.41467	1634.90125	-1040.58728	-654.40326	1520.98975	-1113.42297	-716.26257	1246.55115	-1108.24084	-517.68573	1446.68445	-1120.28284	-472.07162	1273.6676	-1112.14502	-721.22308	1348.68518	-1052.24304	-575.31427	1493.83044	-1291.84705	-568.34766	1297.29578	-1389.21033	-551.63666	1158.78186	-1413.32043	-516.87573	1032.10022	-1431.58569	-445.10556	917.14081	-1397.0332	-484.13635	913.83325	-1438.25635	-452.15903	855.97308	-1442.63879	-582.64081	1482.50769	-925.08942	-622.21429	1293.78882	-842.75995	-609.16138	1147.80969	-820.26843	-566.56427	1033.78955	-800.6861	-497.01926	917.55066	-816.95599	-546.69519	904.75128	-791.39459	-500.13922	849.24426	-785.19867	-485.77353	981.66943	-1241.36548	-484.79526	976.07349	-982.9751	-696.09814	1024.98621	-1158.19885	-701.22498	1023.37701	-1044.35535	-569.69061	669.23138	-1279.66797	-620.32257	470.65106	-1246.05627	-697.00824	290.46295	-1246.14661	-719.33179	69.04599	-1203.89722	-760.19244	42.77038	-1154.60754	-563.72729	30.66494	-1210.30017	-487.15802	680.96228	-896.3186	-414.67117	487.87943	-917.90009	-459.34943	306.23172	-913.27216	-473.48456	113.20753	-942.16742	-493.66306	54.96257	-1003.89764	-329.86768	56.3963	-900.6037	-574.39282	1796.77295	-1070.03015	2845.16138	1033.82263	-3360.23193	NaN	NaN	NaN
77	0.76	-452.98544	1734.58508	-1149.37598	-471.46918	1708.96191	-1009.16724	-581.37299	1660.35339	-1177.75098	-611.01984	1633.47351	-1040.02197	-645.43152	1520.1178	-1113.29468	-707.6925	1245.73193	-1108.09778	-508.81201	1445.66101	-1120.03955	-463.6105	1272.39221	-1112.03833	-712.43005	1348.05347	-1052.27637	-565.90906	1493.08997	-1291.52979	-556.99194	1296.86487	-1389.1665	-537.85303	1158.89978	-1414.27881	-500.37268	1032.9176	-1432.31433	-426.07346	919.53137	-1397.3623	-465.06772	915.33545	-1438.5752	-431.48935	858.32227	-1442.99426	-574.12866	1481.17834	-924.88342	-613.94818	1292.63916	-842.85571	-602.56152	1146.78699	-820.2077	-561.79517	1032.71484	-800.20245	-492.94229	915.61584	-815.85956	-542.94745	903.47974	-790.40198	-496.31113	847.38971	-783.90753	-478.33841	980.72803	-1241.66016	-476.14249	975.32758	-983.2312	-688.25824	1024.08374	-1157.67529	-692.87244	1022.45093	-1043.93311	-563.46887	668.38245	-1279.38171	-616.48138	470.16089	-1245.81177	-694.82953	290.72769	-1245.7207	-719.00549	69.4827	-1203.63098	-759.58582	42.87463	-1154.19019	-563.4303	30.68359	-1210.48584	-477.77682	680.03455	-896.89954	-404.10654	487.21182	-919.57599	-440.02917	303.87546	-912.72162	-446.49551	110.10199	-939.98151	-465.20856	50.94167	-1001.10376	-299.8508	59.09826	-900.49219	-565.60791	1795.59521	-1069.46448	2845.76929	1033.98682	-3357.3186	NaN	NaN	NaN
78	0.77	-443.82663	1733.63135	-1148.68005	-462.19382	1708.15503	-1008.07153	-572.27655	1659.29919	-1177.52271	-602.31494	1632.49365	-1039.94116	-636.39886	1519.21448	-1112.9967	-699.22754	1245.15173	-1107.93237	-499.89371	1444.53821	-1119.68689	-455.11154	1271.13489	-1111.8623	-703.47461	1347.09729	-1052.30676	-556.55383	1492.271	-1291.17554	-545.79663	1296.77002	-1389.28247	-524.26208	1158.90588	-1414.73706	-483.96875	1033.70874	-1432.70679	-407.1799	922.09943	-1397.58936	-446.05988	916.81024	-1438.71924	-411.09482	860.82227	-1443.19141	-565.33185	1479.83545	-924.51202	-606.42462	1291.55371	-842.67395	-596.73694	1145.76611	-820.21021	-556.42957	1031.36658	-799.69318	-488.68164	913.44788	-814.67767	-538.88086	901.91632	-789.4978	-493.34793	845.45355	-782.69275	-470.88956	979.7016	-1241.95715	-467.32724	974.45844	-983.61426	-680.32568	1023.1156	-1156.99561	-684.47839	1021.53326	-1043.34045	-557.95239	667.41492	-1279.27917	-612.75867	469.7959	-1245.51221	-692.69238	290.91238	-1245.18384	-718.71594	69.95087	-1203.41211	-759.50287	43.83185	-1153.85242	-563.38733	30.67979	-1210.51648	-468.89804	679.07953	-897.43152	-393.00214	486.38742	-921.09509	-421.14896	301.63446	-912.07813	-419.71613	107.49223	-937.84698	-437.63464	47.66872	-998.16827	-270.46191	62.44274	-900.63916	-556.43054	1794.49463	-1068.84558	2845.03638	1033.96594	-3360.16138	NaN	NaN	NaN
